<svg version="1.1" id="Layer_1" xmlns="http://www.w3.org/2000/svg" xmlns:xlink="http://www.w3.org/1999/xlink" x="0px" y="0px"
	 width="100%" viewBox="0 0 140 140" enable-background="new 0 0 140 140" xml:space="preserve">
<path fill="#F80C07" opacity="1.000000" stroke="none" 
	d="
M75.000000,141.000000 
	C72.629440,141.000000 70.258888,141.000000 67.778610,140.681458 
	C64.967163,139.795471 62.275520,139.173920 59.562210,138.668732 
	C22.003595,131.675629 -1.868846,97.965981 4.026778,60.226818 
	C9.550802,24.866344 43.656498,0.148844 80.375809,4.894207 
	C124.936447,10.652932 151.878632,58.909420 132.891403,99.577103 
	C122.068237,122.758636 103.524826,135.909180 78.050735,139.181778 
	C76.973740,139.320129 76.014244,140.373123 75.000000,141.000000 
M89.669235,116.543526 
	C87.203667,116.114502 83.356598,116.435219 82.615784,115.070168 
	C81.649750,113.290131 82.369431,109.580032 83.756950,107.766129 
	C86.075058,104.735664 89.330353,102.313835 92.499924,100.072456 
	C95.869659,97.689522 99.965126,96.255157 103.107224,93.641457 
	C116.718941,82.318802 113.964821,61.504551 98.039940,53.892700 
	C97.206055,53.494114 96.386292,53.065994 95.559944,52.651623 
	C95.829216,52.082798 96.098480,51.513969 96.367752,50.945145 
	C100.084427,52.700127 104.349564,53.793579 107.414513,56.334656 
	C116.459549,63.833694 115.880531,74.423920 115.060051,85.163925 
	C121.759338,84.262230 125.543343,88.359871 128.992157,93.093086 
	C138.583679,74.774406 135.032364,47.481922 121.428452,32.151642 
	C107.101776,39.906433 101.156013,41.413574 94.036659,38.641529 
	C103.370644,37.517452 111.342514,34.904186 117.726791,26.770937 
	C100.805992,27.727320 85.535492,30.752821 70.626862,35.687199 
	C62.901062,38.244244 55.316727,40.830948 48.950840,46.453220 
	C40.245277,54.141869 30.974077,61.189217 21.964159,68.534538 
	C18.349602,71.481293 14.639301,74.338638 11.295921,77.571114 
	C10.414259,78.423531 10.173450,80.716850 10.622612,82.005424 
	C11.552575,84.673355 13.167534,87.098740 14.454497,89.647240 
	C15.420910,91.560974 15.935175,93.858910 17.320652,95.372635 
	C20.182259,98.499115 23.371368,101.361603 26.649248,104.061333 
	C29.963778,106.791283 33.548351,109.193367 37.014629,111.739067 
	C35.778278,107.408638 33.510708,104.293686 31.989338,100.849159 
	C29.596331,95.431168 29.756458,89.835922 34.227875,85.564293 
	C42.900146,77.279526 53.681335,73.586533 65.483276,73.194839 
	C70.752869,73.019943 75.042419,76.366112 75.733162,81.083900 
	C77.385452,92.369080 75.454544,102.990150 67.782166,111.897667 
	C63.136574,117.291115 56.861477,118.935905 49.275047,117.847801 
	C62.369694,131.442261 80.245285,130.800247 91.563431,116.905197 
	C91.570786,116.684952 91.578140,116.464699 91.585487,116.244461 
	C91.215164,116.309235 90.844833,116.374008 89.669235,116.543526 
z"/>
<path fill="#020000" opacity="1.000000" stroke="none" 
	d="
M75.468658,141.000000 
	C76.014244,140.373123 76.973740,139.320129 78.050735,139.181778 
	C103.524826,135.909180 122.068237,122.758636 132.891403,99.577103 
	C151.878632,58.909420 124.936447,10.652932 80.375809,4.894207 
	C43.656498,0.148844 9.550802,24.866344 4.026778,60.226818 
	C-1.868846,97.965981 22.003595,131.675629 59.562210,138.668732 
	C62.275520,139.173920 64.967163,139.795471 67.334442,140.681458 
	C45.017448,141.000000 23.034899,141.000000 1.026174,141.000000 
	C1.026174,94.387810 1.026174,47.775600 1.026174,1.081695 
	C47.575062,1.081695 94.150314,1.081695 140.862793,1.081695 
	C140.862793,47.666412 140.862793,94.333145 140.862793,141.000000 
	C119.236359,141.000000 97.586838,141.000000 75.468658,141.000000 
z"/>
<path fill="#030000" opacity="1.000000" stroke="none" 
	d="
M91.069336,117.061882 
	C80.245285,130.800247 62.369694,131.442261 49.275047,117.847801 
	C56.861477,118.935905 63.136574,117.291115 67.782166,111.897667 
	C75.454544,102.990150 77.385452,92.369080 75.733162,81.083900 
	C75.042419,76.366112 70.752869,73.019943 65.483276,73.194839 
	C53.681335,73.586533 42.900146,77.279526 34.227875,85.564293 
	C29.756458,89.835922 29.596331,95.431168 31.989338,100.849159 
	C33.510708,104.293686 35.778278,107.408638 37.014629,111.739067 
	C33.548351,109.193367 29.963778,106.791283 26.649248,104.061333 
	C23.371368,101.361603 20.182259,98.499115 17.320652,95.372635 
	C15.935175,93.858910 15.420910,91.560974 14.454497,89.647240 
	C13.167534,87.098740 11.552575,84.673355 10.622612,82.005424 
	C10.173450,80.716850 10.414259,78.423531 11.295921,77.571114 
	C14.639301,74.338638 18.349602,71.481293 21.964159,68.534538 
	C30.974077,61.189217 40.245277,54.141869 48.950840,46.453220 
	C55.316727,40.830948 62.901062,38.244244 70.626862,35.687199 
	C85.535492,30.752821 100.805992,27.727320 117.726791,26.770937 
	C111.342514,34.904186 103.370644,37.517452 94.036659,38.641529 
	C101.156013,41.413574 107.101776,39.906433 121.428452,32.151642 
	C135.032364,47.481922 138.583679,74.774406 128.992157,93.093086 
	C125.543343,88.359871 121.759338,84.262230 115.060051,85.163925 
	C115.880531,74.423920 116.459549,63.833694 107.414513,56.334656 
	C104.349564,53.793579 100.084427,52.700127 96.367752,50.945145 
	C96.098480,51.513969 95.829216,52.082798 95.559944,52.651623 
	C96.386292,53.065994 97.206055,53.494114 98.039940,53.892700 
	C113.964821,61.504551 116.718941,82.318802 103.107224,93.641457 
	C99.965126,96.255157 95.869659,97.689522 92.499924,100.072456 
	C89.330353,102.313835 86.075058,104.735664 83.756950,107.766129 
	C82.369431,109.580032 81.649750,113.290131 82.615784,115.070168 
	C83.356598,116.435219 87.203667,116.114502 90.217484,116.649872 
	C90.765739,116.756226 91.069336,117.061882 91.069336,117.061882 
M44.270569,58.652763 
	C54.231964,56.785706 59.645119,49.558266 64.490311,41.638214 
	C54.699730,44.854279 47.151974,51.128693 39.926884,58.861115 
	C41.586960,58.861115 42.562981,58.861115 44.270569,58.652763 
z"/>
<path fill="#030000" opacity="1.000000" stroke="none" 
	d="
M90.620117,116.597504 
	C90.844833,116.374008 91.215164,116.309235 91.585487,116.244461 
	C91.578140,116.464699 91.570786,116.684952 91.316383,116.983536 
	C91.069336,117.061882 90.765739,116.756226 90.620117,116.597504 
z"/>
<path fill="#EF0C07" opacity="1.000000" stroke="none" 
	d="
M43.904785,58.756939 
	C42.562981,58.861115 41.586960,58.861115 39.926884,58.861115 
	C47.151974,51.128693 54.699730,44.854279 64.490311,41.638214 
	C59.645119,49.558266 54.231964,56.785706 43.904785,58.756939 
z"/>
</svg>